<svg xmlns="http://www.w3.org/2000/svg" xmlns:xlink="http://www.w3.org/1999/xlink" width="60" height="60" viewBox="0 0 60 60"><defs><style>.a{fill:none;}.b{fill:url(#a);}.c{fill:#101111;stroke:#fff;stroke-linecap:round;stroke-linejoin:round;}.d{fill:url(#b);}</style><linearGradient id="a" x1="0.303" y1="0.043" x2="0.937" y2="1.022" gradientUnits="objectBoundingBox"><stop offset="0" stop-color="#f9c"/><stop offset="0.345" stop-color="#6cf"/><stop offset="0.645" stop-color="#6fddd5"/></linearGradient><linearGradient id="b" x1="-0.004" y1="0.211" x2="1.417" y2="1.023" gradientUnits="objectBoundingBox"><stop offset="0" stop-color="#f9c"/><stop offset="0.41" stop-color="#6cf"/><stop offset="0.62" stop-color="#6fddd5"/></linearGradient></defs><g transform="translate(-32 -12)"><rect class="a" width="60" height="60" transform="translate(32 12)"/><g transform="translate(1249 45.138)"><path class="b" d="M-1092.313,199.1l-5.8-1.583-9.2,1.614-8.687-.611-22.953,4.169.317,18.679,1.845,1.071-.051,5.578,10.038,5.808h0l.04,2.581.938.64s.645,2.1,4.127,2.843,12.136,1.161,15.935-.317,5.945-3.067,3.184-5.069h0c5.774-1.589,9.881-3.043,10.8-3.638C-1091.68,229.7-1092.313,199.1-1092.313,199.1Z" transform="translate(-73.042 -220.927)"/><path class="c" d="M-950.98,590.564q.324.1.689.173c3.487.74,12.1,1.109,15.9-.37s4.675-2.509,2.632-4.784c0,0-12.914,3.551-19.062,4.1A6.68,6.68,0,0,1-950.98,590.564Z" transform="translate(-241.655 -573.504)"/><path class="c" d="M-1127.7,203.376l22.981-4.174,5.874,1.12-17.18,3,.044,2.8Z" transform="translate(-81.484 -223.336)"/><path class="c" d="M-1116.025,243.106l.044,2.794-11.719-2.741.317,18.675,1.847,1.071-.051,5.576,10.05,5.807h0l.04,2.581,4.543,2.427v-34.29Z" transform="translate(-81.484 -263.119)"/><path class="c" d="M-998.235,195.534l29.955-5.441-5.811-1.585-29.215,5.124Z" transform="translate(-194.26 -213.645)"/><path class="c" d="M-919.828,205.394s.634,30.6.528,31.762c-1.8,1.161-15.743,5.593-30.536,7.914l.053-34.242Z" transform="translate(-242.713 -228.947)"/><path class="d" d="M-919.44,252.821a95.666,95.666,0,0,1,.528,22.611l23.773-6.023s.423-16.694-.317-21.238C-896.089,248.806-903.591,251.025-919.44,252.821Z" transform="translate(-270.255 -267.71)"/></g></g></svg>